<?xml version="1.0" encoding="UTF-8"?>
<svg width="64px" height="54px" viewBox="0 0 64 54" version="1.1" xmlns="http://www.w3.org/2000/svg" xmlns:xlink="http://www.w3.org/1999/xlink">
    <!-- Generator: Sketch 55.2 (78181) - https://sketchapp.com -->
    <title>messagebird-icon (1)</title>
    <desc>Created with Sketch.</desc>
    <g id="Page-1" stroke="none" stroke-width="1" fill="none" fill-rule="evenodd">
        <g id="messagebird-icon-(1)" fill="#2481D7" fill-rule="nonzero">
            <path d="M57.425,9.726 C54.857,9.726 52.562,11.01 51.161,12.956 L41.707,26.184 C41.353021,26.6942592 40.7720175,26.9993233 40.151,27.001 C39.099258,26.9987997 38.2472003,26.146742 38.245,25.095 C38.245,24.705 38.362,24.317 38.555,24.045 L46.53,12.1 C47.347,10.894 47.814,9.416 47.814,7.82 C47.814,3.58 44.39,0.156 40.15,0.156 L0,0.156 L0,7.82 L34.393,7.82 C34.393,9.92 32.681,11.672 30.541,11.672 L0,11.672 C0,14.395 0.584,17.002 1.595,19.336 L26.69,19.336 C26.69,21.436 24.978,23.188 22.838,23.188 L3.852,23.188 C7.47471326,28.0288831 13.1736919,30.8709558 19.22,30.852 L28.674,30.852 C29.725742,30.8542003 30.5777997,31.706258 30.58,32.758 C30.5777997,33.809742 29.725742,34.6617997 28.674,34.664 L19.18,34.664 L6.34,53.844 L29.567,53.844 C40.187,53.844 49.214,46.919 52.367,37.348 L56.687,24.238 C58.087,19.998 60.655,16.262 64.001,13.422 C62.678,11.204 60.227,9.726 57.426,9.726 L57.425,9.726 Z M57.425,14.978 C56.647,14.978 55.985,14.318 55.985,13.538 C55.985,12.758 56.645,12.098 57.425,12.098 C58.205,12.098 58.865,12.758 58.865,13.538 C58.865,14.355 58.205,14.978 57.425,14.978 Z" id="Shape"></path>
        </g>
    </g>
</svg>